<svg xmlns="http://www.w3.org/2000/svg" height="804" width="1132" viewBox="0 0 1132 804" xmlns:xlink="http://www.w3.org/1999/xlink" xmlns:ev="http://www.w3.org/2001/xml-events"><style type="text/css"><![CDATA[
.st1 {fill:#000000;font-family:.SF NS Text;font-size:9.75pt}
.st2 {fill:#303030;font-family:宋体;font-size:7.5pt}
.st3 {font-family:NS text;font-size:9.75pt;font-weight:bold}
.st4 {font-family:NS text;font-size:9.75pt}
.st5 {font-family:宋体}
]]></style><defs><linearGradient y1="0%" x1="0%" id="lg1" y2="100%" x2="0%"><stop stop-color="#fbfbfb" offset="0"/><stop stop-color="#efefef" offset="1"/></linearGradient></defs><g transform="translate(5,5)" id="page1"><rect height="794" width="1123" y="0" fill="#ffffff" x="0" stroke="#808080"/><g transform="translate(284,66)" id="table1"><path d="M2,2L134,2L134,157L2,157L2,2z" fill="#000000" fill-opacity="0.08"/><g><path d="M0,0L132,0L132,43.1L0,43.1L0,0z" fill="#969696" stroke="#838383"/><text class="st1"><tspan y="25.5" x="51">Type</tspan></text></g><g><path d="M0,43.1L132,43.1L132,155L0,155L0,43.1z" fill="#ffffff" stroke="#838383"/><text class="st2"><tspan y="87" x="60" class="st3">id</tspan><tspan y="103" x="37" class="st4">breakfast</tspan><tspan y="119" x="55" class="st4">wifi</tspan></text></g></g><path d="M0,0L28.7,0" transform="translate(1015.76,502.38)" fill="none" id="shape2" stroke-dasharray="11,5" stroke="#385d8a"/><g transform="translate(284,333.63)" id="table3"><path d="M2,2L134,2L134,157L2,157L2,2z" fill="#000000" fill-opacity="0.08"/><g><path d="M0,0L132,0L132,43.1L0,43.1L0,0z" fill="#969696" stroke="#838383"/><text class="st1"><tspan y="25.5" x="49">Room</tspan></text></g><g><path d="M0,43.1L132,43.1L132,155L0,155L0,43.1z" fill="#ffffff" stroke="#838383"/><text class="st2"><tspan y="79" x="60" class="st3">id</tspan><tspan y="95" x="51" class="st4">floor</tspan><tspan y="111" x="32" class="st4">room_num</tspan><tspan y="127" x="50" class="st4">price</tspan></text></g></g><g transform="translate(921.44,305.88)" id="table4"><path d="M2,2L134,2L134,212.5L2,212.5L2,2z" fill="#000000" fill-opacity="0.08"/><g><path d="M0,0L132,0L132,42.1L0,42.1L0,0z" fill="#969696" stroke="#838383"/><text class="st1"><tspan y="25.1" x="52" class="st5">User</tspan></text></g><g><path d="M0,42.1L132,42.1L132,210.5L0,210.5L0,42.1z" fill="#ffffff" stroke="#838383"/><text class="st2"><tspan y="74.3" x="60" class="st3">id</tspan><tspan y="90.3" x="46" class="st4">region</tspan><tspan y="106.3" x="35" class="st4">credential</tspan><tspan y="122.3" x="49" class="st4">name</tspan><tspan y="138.3" x="44" class="st4">gender</tspan><tspan y="154.3" x="40" class="st4">birthday</tspan><tspan y="170.3" x="46" class="st4">phone</tspan><tspan y="186.3" x="42" class="st4">balance</tspan></text></g></g><g transform="translate(305.69,247.35)" id="shape5"><path d="M2,32L46.3,2L90.6,32L46.3,61.9L2,32z" fill="#000000" fill-opacity="0.08"/><path d="M0,30L44.3,0L88.6,30L44.3,59.9L0,30z" fill="url(#lg1)" stroke="#6d6d6d"/><text class="st2"><tspan y="33" x="18.3">RoomType</tspan></text></g><path d="M0,0L26.4,0" transform="matrix(0,1,-1,0,350,307.3)" fill="none" id="shape6" stroke="#000000"/><g transform="matrix(0,1,-1,0,350,221)" id="shape7"><path d="M8,0L26.4,0" fill="none" stroke="#000000"/><path d="M8,4L0,0L8,-4L8,4" fill="#000000" stroke-width="1" stroke-linecap="round" stroke="#000000"/></g><g transform="translate(469.31,381.17)" id="shape8"><path d="M2,32L46.3,2L90.6,32L46.3,61.9L2,32z" fill="#000000" fill-opacity="0.08"/><path d="M0,30L44.3,0L88.6,30L44.3,59.9L0,30z" fill="url(#lg1)" stroke="#6d6d6d"/><text class="st2"><tspan y="33" x="16.3">OrderRoom</tspan></text></g><g transform="translate(605.56,333.63)" id="table9"><path d="M2,2L134,2L134,157L2,157L2,2z" fill="#000000" fill-opacity="0.08"/><g><path d="M0,0L132,0L132,43.1L0,43.1L0,0z" fill="#969696" stroke="#838383"/><text class="st1"><tspan y="25.5" x="48">Order</tspan></text></g><g><path d="M0,43.1L132,43.1L132,155L0,155L0,43.1z" fill="#ffffff" stroke="#838383"/><text class="st2"><tspan y="87" x="60" class="st3">id</tspan><tspan y="103" x="52" class="st4">time</tspan><tspan y="119" x="47" class="st4">status</tspan></text></g></g><g transform="translate(416,411.13)" id="shape10"><path d="M8,0L53.3,0" fill="none" stroke="#000000"/><path d="M8,4L0,0L8,-4L8,4" fill="#000000" stroke-width="1" stroke-linecap="round" stroke="#000000"/></g><path d="M0,0L47.6,0" transform="matrix(1,0,-0,1,557.9,411.1)" fill="none" id="shape11" stroke="#000000"/><g transform="translate(785.19,381.17)" id="shape12"><path d="M2,32L46.3,2L90.6,32L46.3,61.9L2,32z" fill="#000000" fill-opacity="0.08"/><path d="M0,30L44.3,0L88.6,30L44.3,59.9L0,30z" fill="url(#lg1)" stroke="#6d6d6d"/><text class="st2"><tspan y="33" x="19.3">OrderUser</tspan></text></g><path d="M0,0L47.6,0" transform="matrix(1,-0,0,1,737.6,411.1)" fill="none" id="shape13" stroke="#000000"/><g transform="matrix(1,0,-0,1,873.8,411.1)" id="shape14"><path d="M0,0L41.6,0" fill="none" stroke="#000000"/><path d="M41.6,-3L47.6,0L41.6,3L41.6,-3" fill="#000000" stroke-width="1" stroke-linecap="round" stroke="#000000"/></g><g transform="translate(605.56,66)" id="table15"><path d="M2,2L134,2L134,157L2,157L2,2z" fill="#000000" fill-opacity="0.08"/><g><path d="M0,0L132,0L132,43.1L0,43.1L0,0z" fill="#969696" stroke="#838383"/><text class="st1"><tspan y="25.5" x="36">Operation</tspan></text></g><g><path d="M0,43.1L132,43.1L132,155L0,155L0,43.1z" fill="#ffffff" stroke="#838383"/><text class="st2"><tspan y="87" x="60" class="st3">id</tspan><tspan y="103" x="52" class="st4">time</tspan><tspan y="119" x="36" class="st4">operation</tspan></text></g></g><g transform="translate(627.25,247.35)" id="shape16"><path d="M2,32L46.3,2L90.6,32L46.3,61.9L2,32z" fill="#000000" fill-opacity="0.08"/><path d="M0,30L44.3,0L88.6,30L44.3,59.9L0,30z" fill="url(#lg1)" stroke="#6d6d6d"/><text class="st2"><tspan y="33" x="23.3">OrderOp</tspan></text></g><path d="M0,0L26.4,0" transform="matrix(0,-1,1,0,671.6,333.6)" fill="none" id="shape17" stroke="#000000"/><path d="M0,0L26.4,0" transform="matrix(-0,-1,1,-0,671.6,247.4)" fill="none" id="shape18" stroke="#000000"/><g transform="translate(679,305.88)" id="shape19"><text class="st2"><tspan y="13" x="0.5">1..2</tspan></text></g><g transform="translate(679,226)" id="shape20"><text class="st2"><tspan y="13" x="6.8">1</tspan></text></g></g></svg>